<svg xmlns="http://www.w3.org/2000/svg" width="16" height="16" viewBox="0 0 16 16">
  <metadata><?xpacket begin="﻿" id="W5M0MpCehiHzreSzNTczkc9d"?>
<x:xmpmeta xmlns:x="adobe:ns:meta/" x:xmptk="Adobe XMP Core 5.6-c138 79.159824, 2016/09/14-01:09:01        ">
   <rdf:RDF xmlns:rdf="http://www.w3.org/1999/02/22-rdf-syntax-ns#">
      <rdf:Description rdf:about=""/>
   </rdf:RDF>
</x:xmpmeta>
                                                                                                    
                                                                                                    
                                                                                                    
                                                                                                    
                                                                                                    
                                                                                                    
                                                                                                    
                                                                                                    
                                                                                                    
                                                                                                    
                                                                                                    
                                                                                                    
                                                                                                    
                                                                                                    
                                                                                                    
                                                                                                    
                                                                                                    
                                                                                                    
                                                                                                    
                                                                                                    
                           
<?xpacket end="w"?></metadata>
<defs>
    <style>
      .cls-1 {
        fill: #1a1ff7;
        fill-rule: evenodd;
      }
    </style>
  </defs>
  <path id="button_phone" class="cls-1" d="M546.842,155.274l-0.906-.948s-1.119-.748-1.812,0-1.813,1.9-1.813,1.9-1.126.84,0.907,3.792,8.155,9.482,8.155,9.482,1.295,1.161,3.625,0,2.719-1.9,2.719-1.9a1.822,1.822,0,0,0,0-1.9,5.747,5.747,0,0,0-1.813-1.9,2.706,2.706,0,0,0-2.718.948c-1.863,2.122-6.344-3.792-6.344-3.792a2,2,0,0,1,0-1.9c1.175-1.57,1.962-1.35.907-2.844C547.051,155.234,546.842,155.274,546.842,155.274Z" transform="translate(-542 -154)"/>
</svg>
